Coordinates
datacolumns 6
datarows 124
range 0 1.23
inDegrees=yes
Units are S.I. units (second, meters, Newtons, ...)
If the header above contains a line with 'inDegrees', this indicates whether rotational values are in degrees (yes) or radians (no).
endheader
time	foot_tx	hip_flexion_r	knee_angle_r	ankle_angle_r	lumbar
0	0.25545234	69.12615289	-74.5331363	3.27032586	-11.57161004
0.01	0.25545317	69.24162265	-74.51868019	3.27102836	-11.67718383
0.02	0.25545572	69.36625116	-74.50559337	3.27269427	-11.78848556
0.03	0.25546065	69.5008206	-74.49366468	3.27489649	-11.90645868
0.04	0.25546771	69.64581731	-74.48279945	3.27747254	-12.03208795
0.05	0.25547545	69.80155567	-74.47296202	3.28050936	-12.16637079
0.06	0.25548628	69.96860693	-74.46379872	3.28386012	-12.30976652
0.07	0.25549851	70.14672712	-74.45540034	3.28783311	-12.46290268
0.08	0.25550969	70.33609949	-74.44751975	3.29245408	-12.62728367
0.09	0.25551803	70.53623575	-74.43970137	3.29765094	-12.80476434
0.1	0.25552717	70.74716819	-74.43183261	3.30346139	-12.99486651
0.11	0.25552969	70.96954537	-74.4219782	3.30877437	-13.20080896
0.12	0.25552811	71.20538582	-74.41128801	3.31383227	-13.4186495
0.13	0.25550232	71.41928214	-74.39985067	3.32270775	-13.69485728
0.14	0.25548878	71.69473332	-74.38238955	3.32204024	-13.93064708
0.15	0.25547833	71.98638035	-74.35972157	3.3169836	-14.18186921
0.16	0.25546484	72.295311	-74.33426981	3.30936553	-14.44686848
0.17	0.25545658	72.62150539	-74.30761362	3.30089693	-14.72385424
0.18	0.25545053	72.96479247	-74.28278618	3.29504943	-15.011049
0.19	0.25544527	73.32524238	-74.26178061	3.29422994	-15.30786093
0.2	0.25544005	73.70391062	-74.24521358	3.29929068	-15.61460306
0.21	0.25543784	74.10268879	-74.23244983	3.30974989	-15.93146047
0.22	0.25543398	74.52464475	-74.22266192	3.32528319	-16.25711703
0.23	0.25541758	75.0173246	-74.2204383	3.34562157	-16.53400892
0.24	0.25541414	75.47728756	-74.21289155	3.37130731	-16.88870553
0.25	0.25539262	76.0330862	-74.2102473	3.40020521	-17.16203596
0.26	0.25537379	76.59641727	-74.19976983	3.43228609	-17.46089317
0.27	0.25534916	77.20304702	-74.18234931	3.46622899	-17.74054021
0.28	0.25532019	77.85866363	-74.15694393	3.50109026	-17.99436437
0.29	0.25527766	78.56943285	-74.12586101	3.53821128	-18.21562309
0.3	0.25523035	79.3361965	-74.08926752	3.57719872	-18.40390409
0.31	0.25516705	80.16757082	-74.05262262	3.62156488	-18.54731463
0.32	0.25508357	81.06338101	-74.01538317	3.67207852	-18.64444677
0.33	0.25497782	82.02729563	-73.98314523	3.73275324	-18.68518618
0.34	0.25486381	83.06172185	-73.95113901	3.80105445	-18.66265452
0.35	0.25472966	84.16445037	-73.92606158	3.88336472	-18.57111721
0.36	0.25458627	85.3302954	-73.90564167	3.98043505	-18.40864926
0.37	0.25444374	86.55492558	-73.89081489	4.09497349	-18.16818526
0.38	0.25430208	87.82413344	-73.88090396	4.23102677	-17.85564578
0.39	0.25418591	89.12143581	-73.87156182	4.3889412	-17.47762558
0.4	0.25409637	90.42763538	-73.86171002	4.5727634	-17.04450975
0.41	0.25404337	91.71803055	-73.84732573	4.78448998	-16.5743183
0.42	0.25403362	92.96807716	-73.82574104	5.02610827	-16.08579237
0.43	0.25407546	94.15018303	-73.79350434	5.29752243	-15.60303876
0.44	0.25416983	95.23991629	-73.75136659	5.59958232	-15.1478174
0.45	0.25432156	96.21122513	-73.69760501	5.92946211	-14.74593309
0.46	0.25452588	97.04452354	-73.63423857	6.28495312	-14.41677805
0.47	0.25477797	97.72172261	-73.56403208	6.66294768	-14.17925162
0.48	0.25506768	98.2397431	-73.48791846	7.05882159	-14.03217699
0.49	0.25538103	98.60453878	-73.40379644	7.46703119	-13.96115217
0.5	0.25570144	98.83149598	-73.30758131	7.88190039	-13.93845005
0.51	0.25600886	98.91703316	-73.19401097	8.29991131	-13.96027604
0.52	0.25630117	98.92441784	-73.04916997	8.70816233	-13.93737453
0.53	0.2565629	98.8044209	-72.86804338	9.10840521	-13.9273339
0.54	0.25679032	98.5881533	-72.63942558	9.49377817	-13.88429075
0.55	0.25700132	98.2789783	-72.3448098	9.85432427	-13.80046179
0.56	0.25717998	97.88000834	-71.97979301	10.19027655	-13.66998629
0.57	0.25734074	97.39968393	-71.53191538	10.49423499	-13.48336228
0.58	0.25749054	96.84148693	-70.99290974	10.76093456	-13.24046335
0.59	0.25763052	96.20149973	-70.35891367	10.98725252	-12.95412991
0.6	0.25776915	95.4727279	-69.6284959	11.16970417	-12.64347063
0.61	0.25790013	94.64519574	-68.80200361	11.30712947	-12.33204999
0.62	0.25802818	93.71315279	-67.87999934	11.39788746	-12.03513242
0.63	0.2581544	92.66879069	-66.8654016	11.44302684	-11.7667234
0.64	0.25828467	91.51196838	-65.75873887	11.4420177	-11.5284387
0.65	0.25842454	90.24162983	-64.56254634	11.39594	-11.32141761
0.66	0.25856736	88.86204218	-63.27968528	11.30680446	-11.1397004
0.67	0.2587174	87.36838006	-61.91713511	11.17869929	-10.98871494
0.68	0.2588687	85.76095314	-60.48144476	11.01623681	-10.86608248
0.69	0.25902837	84.0439616	-58.98037503	10.82327605	-10.76430795
0.7	0.25919091	82.21273245	-57.42005848	10.60454233	-10.68909443
0.71	0.25935823	80.2708389	-55.80383466	10.3616935	-10.63544133
0.72	0.25953187	78.22987325	-54.13344018	10.09499497	-10.58928719
0.73	0.25971402	76.08789126	-52.40691725	9.803779	-10.5549546
0.74	0.2598821	73.86292506	-50.63623721	9.49502579	-10.51262211
0.75	0.26005318	71.55026012	-48.80943892	9.16190137	-10.46831421
0.76	0.26021936	69.16030855	-46.93177075	8.80747568	-10.4113541
0.77	0.26038006	66.69466008	-45.00644844	8.43359867	-10.34231081
0.78	0.26053577	64.15816942	-43.03889522	8.04272632	-10.25939358
0.79	0.26068699	61.55047053	-41.03688469	7.63867359	-10.16866006
0.8	0.26083303	58.87893947	-39.00988368	7.22559202	-10.06865584
0.81	0.26097238	56.1561572	-36.96826935	6.80773138	-9.95351331
0.82	0.26110144	53.39765359	-34.92082669	6.38847637	-9.81405354
0.83	0.26121433	50.62813374	-32.87610654	5.97042843	-9.63295185
0.84	0.26129723	47.86839432	-30.84294955	5.55699436	-9.39990591
0.85	0.26134485	45.14881428	-28.83054822	5.14994216	-9.09676332
0.86	0.26135121	42.48768377	-26.84918956	4.75197341	-8.7243814
0.87	0.26129308	39.92558903	-24.91163791	4.36771712	-8.25082168
0.88	0.26118476	37.47124569	-23.03178608	3.99952518	-7.6995236
0.89	0.26100129	35.14827408	-21.2288943	3.65649199	-7.06150907
0.9	0.26075912	32.96984537	-19.51431887	3.33962105	-6.35144497
0.91	0.26045707	30.9429474	-17.9003875	3.05311626	-5.5828054
0.92	0.26010337	29.07334784	-16.39569771	2.79862415	-4.76880522
0.93	0.25971278	27.35579716	-15.0038632	2.57609928	-3.93048016
0.94	0.25930242	25.7859909	-13.72649383	2.38482134	-3.08281772
0.95	0.25889812	24.35916969	-12.56054433	2.22158413	-2.23714213
0.96	0.25851695	23.05775212	-11.50284815	2.08483455	-1.41559643
0.97	0.25817442	21.87289916	-10.5456621	1.9707336	-0.62561542
0.98	0.25787782	20.79548669	-9.67887367	1.87493937	0.12967527
0.99	0.25761847	19.81172093	-8.89223615	1.79447484	0.84290527
1	0.2573909	18.91242381	-8.17138975	1.7235868	1.51570974
1.01	0.25717819	18.08669069	-7.50520337	1.65883099	2.14676393
1.02	0.25696357	17.32664546	-6.88085197	1.59602341	2.74133607
1.03	0.25674189	16.62725671	-6.29243368	1.53285754	3.30018629
1.04	0.25648299	15.97668578	-5.73621049	1.47234063	3.82616003
1.05	0.25619992	15.3782638	-5.21287662	1.41454123	4.3262292
1.06	0.25588607	14.82566125	-4.73230589	1.36772576	4.79775124
1.07	0.25556088	14.32023204	-4.30727463	1.33882497	5.24067237
1.08	0.25526132	13.86856172	-3.95550277	1.33547092	5.65649388
1.09	0.25504087	13.47690711	-3.6844825	1.35875021	6.04892502
1.1	0.25493146	13.12787024	-3.50706156	1.41527062	6.39240614
1.11	0.25497832	12.82950263	-3.42427818	1.50152052	6.69059641
1.12	0.2551776	12.59942539	-3.43259308	1.61482208	6.96926662
1.13	0.25551194	12.40820287	-3.51027037	1.74654547	7.2052616
1.14	0.25593784	12.24909871	-3.63687	1.88852507	7.40176089
1.15	0.25640713	12.0934549	-3.78509609	2.031452	7.54143791
1.16	0.25686407	11.95917024	-3.93696756	2.16836172	7.65824453
1.17	0.25728003	11.83229697	-4.07507089	2.29341067	7.7492805
1.18	0.25763263	11.68782644	-4.18781125	2.40395976	7.79025594
1.19	0.25790652	11.53431355	-4.2741986	2.50177708	7.80255786
1.2	0.25811626	11.3784139	-4.33773542	2.58808436	7.79441622
1.21	0.25828039	11.22544252	-4.38438711	2.66557807	7.77352106
1.22	0.258415	11.08277467	-4.42091676	2.73713687	7.74925766
1.23	0.25853987	10.95676857	-4.45333013	2.80464422	7.72898765
